{
  "asset": {
    "version": "2.0",
    "generator": "THREE.GLTFExporter"
  },
  "scenes": [
    {
      "nodes": [
        0
      ]
    }
  ],
  "scene": 0,
  "nodes": [
    {
      "children": [
        6
      ],
      "matrix": [
        0.01,
        0,
        0,
        0,
        0,
        0.01,
        0,
        0,
        0,
        0,
        0.01,
        0,
        0,
        0,
        0,
        1
      ]
    },
    {
      "name": "Rectangle 4",
      "mesh": 0
    },
    {
      "matrix": [
        1,
        0,
        0,
        0,
        0,
        1,
        0,
        0,
        0,
        0,
        1,
        0,
        -97.73311541594012,
        24.201500427501315,
        440.3360751626751,
        1
      ],
      "name": "Point Light",
      "extensions": {
        "KHR_lights_punctual": {
          "light": 0
        }
      }
    },
    {
      "matrix": [
        0.4599455937423943,
        0.3694122536500146,
        -0.8074556567701868,
        0,
        -0.6261985959591211,
        0.77966359310848,
        0,
        0,
        0.6295437786332114,
        0.505627598568741,
        0.5899282688173422,
        0,
        0,
        0,
        0,
        1
      ],
      "name": "Directional Light",
      "extensions": {
        "KHR_lights_punctual": {
          "light": 1
        }
      }
    },
    {
      "matrix": [
        0.9996274920839069,
        0,
        -0.027292436132354877,
        0,
        -0.0007183272258768172,
        0.999653578143644,
        -0.026309840565957438,
        0,
        0.027282981435965425,
        0.026319644842009843,
        0.9992811992724346,
        0,
        46.00734820405589,
        47.24748197858176,
        992.1484395160996,
        1
      ],
      "camera": 0
    },
    {
      "matrix": [
        1,
        0,
        0,
        0,
        0,
        1,
        0,
        0,
        0,
        0,
        1,
        0,
        0,
        1,
        0,
        1
      ],
      "name": "Default Ambient Light"
    },
    {
      "name": "Scene",
      "children": [
        1,
        2,
        3,
        4,
        5
      ]
    }
  ],
  "bufferViews": [
    {
      "buffer": 0,
      "byteOffset": 0,
      "byteLength": 39912,
      "target": 34962,
      "byteStride": 12
    },
    {
      "buffer": 0,
      "byteOffset": 39912,
      "byteLength": 39912,
      "target": 34962,
      "byteStride": 12
    },
    {
      "buffer": 0,
      "byteOffset": 79824,
      "byteLength": 26608,
      "target": 34962,
      "byteStride": 8
    },
    {
      "buffer": 0,
      "byteOffset": 106432,
      "byteLength": 70800,
      "target": 34963
    }
  ],
  "buffers": [
    {
      "byteLength": 177232,
      "uri": "data:application/octet-stream;base64,"
    }
  ],
  "accessors": [
    {
      "bufferView": 0,
      "componentType": 5126,
      "count": 3326,
      "max": [
        405.3935241699219,
        165.44496154785156,
        22
      ],
      "min": [
        -405.3935241699219,
        -165.44496154785156,
        0
      ],
      "type": "VEC3"
    },
    {
      "bufferView": 1,
      "componentType": 5126,
      "count": 3326,
      "max": [
        1,
        1,
        1
      ],
      "min": [
        -1,
        -1,
        -1
      ],
      "type": "VEC3"
    },
    {
      "bufferView": 2,
      "componentType": 5126,
      "count": 3326,
      "max": [
        1,
        1
      ],
      "min": [
        0,
        0
      ],
      "type": "VEC2"
    },
    {
      "bufferView": 3,
      "componentType": 5125,
      "count": 17700,
      "max": [
        3325
      ],
      "min": [
        0
      ],
      "type": "SCALAR"
    }
  ],
  "meshes": [
    {
      "primitives": [
        {
          "mode": 4,
          "attributes": {
            "POSITION": 0,
            "NORMAL": 1,
            "TEXCOORD_0": 2
          },
          "extras": {
            "shape": {
              "points": [
                -405.39353845232614,
                165.4449669829135,
                -405.39353845232614,
                165.4449669829135,
                -405.39353845232614,
                165.4449669829135,
                16,
                405.39353845232614,
                165.4449669829135,
                405.39353845232614,
                165.4449669829135,
                405.39353845232614,
                165.4449669829135,
                16,
                405.39353845232614,
                -165.4449669829135,
                405.39353845232614,
                -165.4449669829135,
                405.39353845232614,
                -165.4449669829135,
                16,
                -405.39353845232614,
                -165.4449669829135,
                -405.39353845232614,
                -165.4449669829135,
                -405.39353845232614,
                -165.4449669829135,
                16
              ],
              "shapeHoles": [],
              "isClosed": true,
              "roundness": 16
            },
            "parameters": {
              "width": 810.7870769046523,
              "depth": 22,
              "cornerRadius": [
                16,
                16,
                16,
                16
              ],
              "cornerType": 1,
              "extrudeBevelSize": 5,
              "extrudeBevelSegments": 8,
              "height": 330.889933965827,
              "type": "RectangleGeometry"
            },
            "ui": {
              "enabledIndieCorners": false
            },
            "type": "RectangleGeometry"
          },
          "indices": 3
        }
      ]
    }
  ],
  "extensions": {
    "KHR_lights_punctual": {
      "lights": [
        {
          "name": "Point Light",
          "color": [
            1,
            1,
            1
          ],
          "intensity": 1,
          "type": "point",
          "range": 2000
        },
        {
          "name": "Directional Light",
          "color": [
            1,
            1,
            1
          ],
          "intensity": 0.7,
          "type": "directional"
        }
      ]
    }
  },
  "cameras": [
    {
      "type": "orthographic",
      "orthographic": {
        "xmag": 6.9312000000000005,
        "ymag": 3.3979125000000003,
        "zfar": 100000,
        "znear": 0
      }
    }
  ],
  "extensionsUsed": [
    "KHR_lights_punctual"
  ]
}